<svg width="18" height="18" viewBox="0 0 18 18" fill="none" xmlns="http://www.w3.org/2000/svg">
<path d="M8.97452 15.4005C8.97175 14.7595 8.80026 14.1306 8.4773 13.577C8.15435 13.0233 7.69131 12.5645 7.13475 12.2466C7.35364 11.9166 7.47898 11.5334 7.49741 11.1379C7.51584 10.7423 7.42669 10.3491 7.23943 10.0002C7.05217 9.65128 6.77382 9.35966 6.43399 9.15636C6.09416 8.95306 5.70557 8.8457 5.30957 8.8457C4.91358 8.8457 4.52499 8.95306 4.18516 9.15636C3.84533 9.35966 3.56698 9.65128 3.37972 10.0002C3.19246 10.3491 3.10331 10.7423 3.12174 11.1379C3.14017 11.5334 3.26551 11.9166 3.4844 12.2466C2.93328 12.5682 2.47609 13.0286 2.1584 13.582C1.84072 14.1354 1.67364 14.7624 1.67383 15.4005V16.1306H8.97452V15.4005Z" fill="#F7F7F7"/>
<path d="M8.97453 1.52773C8.01578 1.52773 7.06643 1.71656 6.18067 2.08346C5.29491 2.45035 4.49009 2.98812 3.81215 3.66605C2.44301 5.0352 1.67383 6.89216 1.67383 8.82842H3.13397C3.13474 7.72253 3.44947 6.63958 4.04155 5.70553C4.63363 4.77148 5.47873 4.02473 6.47856 3.55212C7.47838 3.07952 8.59184 2.90049 9.68942 3.03585C10.787 3.17121 11.8236 3.61541 12.6786 4.31678C13.5337 5.01814 14.172 5.94785 14.5194 6.99776C14.8668 8.04767 14.909 9.17464 14.6411 10.2476C14.3731 11.3205 13.8061 12.2954 13.0058 13.0587C12.2056 13.822 11.2051 14.3424 10.1207 14.5595L10.4055 16.0196C12.2223 15.7048 13.8527 14.7142 14.9693 13.2467C16.0858 11.7793 16.6056 9.9437 16.4245 8.1087C16.2433 6.27371 15.3744 4.57525 13.9925 3.35449C12.6105 2.13373 10.8179 1.48111 8.97453 1.52773Z" fill="#F7F7F7"/>
<path d="M8.24414 4.44922V9.12897L10.6461 11.5382L11.6828 10.5015L9.70428 8.53031V4.44922H8.24414Z" fill="#F7F7F7"/>
</svg>
